Coordinates
version=1
nRows=16
nColumns=36
inDegrees=yes

Units are S.I. units (second, meters, Newtons, ...)
If the header above contains a line with 'inDegrees', this indicates whether rotational values are in degrees (yes) or radians (no).

endheader
time	pelvis_tilt	pelvis_list	pelvis_rotation	pelvis_tx	pelvis_ty	pelvis_tz	hip_flexion_r	hip_adduction_r	hip_rotation_r	knee_angle_r	knee_angle_r_beta	ankle_angle_r	subtalar_angle_r	mtp_angle_r	hip_flexion_l	hip_adduction_l	hip_rotation_l	knee_angle_l	knee_angle_l_beta	ankle_angle_l	subtalar_angle_l	mtp_angle_l	lumbar_extension	lumbar_bending	lumbar_rotation	arm_flex_r	arm_add_r	arm_rot_r	elbow_flex_r	pro_sup_r	arm_flex_l	arm_add_l	arm_rot_l	elbow_flex_l	pro_sup_l
      6.70000000	    -17.01307777	      6.61282587	     -1.76751228	      0.83412721	      0.90522873	      0.08019846	     48.63427581	     -4.91911122	      6.48965851	     59.57663682	      1.03980847	     19.94521491	    -15.02502512	     -7.49999987	     46.17971668	      3.67336639	      2.44159038	     54.57035861	      0.95243243	     17.71359228	     -9.42958933	     -7.49999987	    -10.73156778	     -1.01500395	      1.32293199	    -28.65036224	    -14.75818539	    -12.48084290	    116.37138123	     99.49142036	      2.94433790	    -43.91634573	    -19.39644333	    133.68736082	     87.49170090
      6.71666670	    -16.59162933	      6.35016251	     -2.25584939	      0.84143233	      0.94061300	      0.08381542	     44.74498853	     -4.70207651	      5.72139591	     53.11456701	      0.92702408	     14.93202005	    -14.85493277	     -7.49999987	     41.84120382	      2.90266007	      2.18246695	     47.78188505	      0.83395122	     13.30211687	     -8.61966346	     -7.49999987	     -9.25653758	     -0.91387005	     -2.42873326	    -32.55772186	    -17.77451321	    -10.96573101	    118.37519700	     97.58980900	    -15.27953711	    -45.71210860	    -32.87859027	    138.31295060	     88.07790407
      6.73333330	    -15.70663759	      5.78257613	     -2.46649225	      0.85277144	      0.97256403	      0.08547604	     39.76527405	     -4.73805054	      4.41680090	     45.74321739	      0.79836975	      9.37908856	    -13.10532295	     -7.49999987	     36.63623359	      1.94744918	      1.90019312	     40.13915723	      0.70056045	      8.35404670	     -6.67657087	     -7.49999987	     -7.71993992	     -0.31274409	     -1.45113909	    -40.35822771	    -19.06365072	    -14.44451045	    124.46718405	     97.14713773	    -23.50050380	    -48.89404909	    -32.42250830	    139.21147512	     88.20410615
      6.75000000	    -14.66641437	      5.25742513	     -2.49249596	      0.86707879	      1.01141548	      0.08944537	     33.79075484	     -4.84219900	      2.78370240	     36.84395096	      0.64304825	      2.88339911	    -10.32427929	     -7.49999987	     30.79816859	      0.94301333	      1.16186396	     31.45681511	      0.54902500	      2.07121364	     -3.10753764	     -7.49999987	     -6.19839307	      0.33383817	     -0.71963542	    -47.77533523	    -20.40497141	    -16.58529595	    131.10795912	     96.28807736	    -32.12600207	    -52.09774765	    -30.62867890	    139.60677561	     87.97576144
      6.76666670	    -13.76030641	      4.76092615	     -2.58304002	      0.88290023	      1.04413050	      0.09064348	     28.04148925	     -4.99876172	      0.62954277	     27.98476115	      0.48842622	     -5.98267832	     -6.57635854	     -7.49999987	     25.25005501	      0.02896210	     -0.00844771	     23.05908310	      0.40245692	     -5.14979106	      1.09808988	     -7.49999987	     -4.25902378	      1.04964192	     -0.59066502	    -55.55800877	    -21.85409782	    -18.09458297	    138.72778450	     96.54192486	    -41.76896875	    -55.13638801	    -27.59641823	    140.09978350	     88.38575979
      6.78333330	    -12.83577958	      4.54432331	     -2.39540037	      0.89096792	      1.07997093	      0.09193930	     22.58406844	     -5.32327898	     -1.46421381	     18.77063762	      0.32760943	    -15.81186961	     -1.91968342	     -7.49999987	     20.56099445	     -0.36054489	     -1.71334340	     15.01490678	      0.26205956	    -15.45483786	      5.01535214	     -7.49999987	     -3.60214039	      1.02963097	     -3.32328100	    -60.03912626	    -26.33895391	    -17.87758360	    144.57459385	    100.19746617	    -55.39479299	    -53.75664802	    -29.90159280	    142.32776686	     93.70736078
      6.80000000	    -12.04426450	      4.51090070	     -2.09058683	      0.89873255	      1.12201956	      0.09114025	     18.29430052	     -5.76675938	     -4.21377854	     10.77970679	      0.18814138	    -25.80163125	      2.56776747	     -7.49999987	     17.00182565	     -0.35833884	     -4.04062559	      8.24790335	      0.14395307	    -24.64722849	      7.88340743	     -7.49999987	     -3.00525271	      1.11356751	     -4.80554341	    -65.24051750	    -28.92154227	    -18.04958670	    147.62681872	    100.26769062	    -61.89332407	    -52.63645022	    -25.62149480	    141.10961651	     99.17564207
      6.81666670	    -11.50529668	      4.86806442	     -1.64983086	      0.89906704	      1.15042976	      0.09342333	     15.77040196	     -6.34977310	     -7.94519848	      5.11553646	      0.08928295	    -30.98401485	      5.17483538	     -7.49999987	     15.12118234	      0.26043650	     -7.15953735	      3.81040378	      0.06650409	    -30.58514682	      8.97057826	     -7.49999987	     -3.02522315	      0.73020999	     -5.89054714	    -66.37290821	    -31.36399140	    -16.24672459	    147.52494749	    101.83307518	    -64.02841262	    -51.03057186	    -19.50355171	    136.88249331	    101.76447154
      6.83333330	    -11.07652775	      5.14415656	     -1.78704089	      0.89583055	      1.18185489	      0.09488446	     14.98395416	     -6.38601354	    -11.82112225	      1.87180705	      0.03266920	    -33.04942087	      5.89873707	     -7.49999987	     14.40327503	      0.83685808	     -9.53900351	      1.30288443	      0.02273962	    -32.53213363	      9.78685356	     -7.49999987	     -3.75815273	      0.55295645	     -6.33361565	    -63.13546577	    -33.13745146	    -13.54920607	    144.17415351	    100.25393601	    -61.66275300	    -48.76045853	    -12.28066927	    129.99623110	    103.42502102
      6.85000000	    -10.79607748	      5.33531550	     -2.08018063	      0.89266790	      1.21169617	      0.09799917	     15.52386744	     -6.13255093	    -14.81498359	      0.77439003	      0.01351566	    -33.95209078	      5.53078457	     -7.49999987	     14.63407303	      1.19840595	    -11.18650384	      0.78455832	      0.01369313	    -32.72202053	     10.15034928	     -7.49999987	     -5.01267962	      0.02574313	     -6.52365957	    -55.61442466	    -34.19321895	     -9.33299674	    135.75459793	     96.15211898	    -56.53796879	    -45.44184344	     -5.89254992	    121.16828493	     99.36027449
      6.86666670	    -10.63002568	      5.41274061	     -2.56031003	      0.88417021	      1.22212882	      0.09938076	     17.02017888	     -5.88175474	    -16.38617700	      0.64696698	      0.01129170	    -33.21201533	      3.96504402	     -7.49999987	     15.40574576	      1.40881083	    -11.18075178	      1.03944486	      0.01814174	    -30.85204858	     10.29661653	     -7.49999987	     -6.63871344	     -0.34723456	     -6.38688808	    -49.08768891	    -33.37141400	     -6.00804779	    126.62461843	     95.68393144	    -51.41523167	    -42.27512147	     -2.22008509	    112.43926045	     98.72127184
      6.88333330	    -10.40825257	      5.07431951	     -2.70942380	      0.87838265	      1.24568784	      0.10013060	     18.30340461	     -5.45878659	    -16.89097602	      0.80360401	      0.01402554	    -32.23611528	      2.65170262	     -7.49999987	     16.48007883	      1.09860301	    -10.27108265	      1.64993203	      0.02879675	    -28.80642650	     10.34615825	     -7.49999987	     -8.36190967	     -0.12242275	     -6.43502357	    -42.47130612	    -31.62818596	     -1.96599086	    115.55038516	     89.74958907	    -45.10037093	    -39.36300964	      1.88707141	    102.41315512	     91.67295131
      6.90000000	    -10.30547515	      4.80237309	     -2.79792948	      0.87824206	      1.26585519	      0.09956023	     19.92132426	     -5.31779497	    -17.27160165	      0.91544918	      0.01597760	    -30.11371526	      1.76908626	     -7.49999987	     17.65942242	      0.83821709	     -9.55513514	      2.28835032	      0.03993925	    -25.99530200	     10.26997153	     -7.49999987	     -9.78697766	      0.17968365	     -6.00932828	    -35.25630871	    -29.35659222	      1.63279879	    102.38730747	     87.36392376	    -38.40857942	    -36.92785491	      5.59170614	     92.64168381	     88.05250086
      6.91666670	    -10.33679212	      4.73200029	     -3.02222845	      0.87471955	      1.28062502	      0.10153902	     21.56736075	     -5.32714279	    -17.60755553	      0.84995147	      0.01483445	    -27.48802946	      1.07787102	     -7.49999987	     18.98409650	      0.66493102	     -9.26063706	      2.55055785	      0.04451563	    -24.16082525	      9.57344506	     -7.49999987	    -10.86867655	      0.21766831	     -5.39412455	    -28.88521605	    -26.69734175	      4.60969144	     88.87388190	     85.91243700	    -32.48828631	    -34.55431747	      8.62247747	     83.51440753	     85.40794475
      6.93333330	    -10.43030943	      4.67851400	     -3.23729960	      0.87232795	      1.29712249	      0.10441511	     23.09451706	     -5.28187098	    -17.53203096	      0.59725782	      0.01042412	    -24.06787421	      1.13820051	     -7.49999987	     20.29179017	      0.31164254	     -9.35021665	      2.51978094	      0.04397847	    -21.60476991	      9.22997218	     -7.49999987	    -11.78277170	      0.16996199	     -4.95814460	    -22.24966207	    -23.65721957	      7.43071823	     74.16633313	     90.83260955	    -26.81739875	    -32.39727913	     10.90628987	     75.38452046	     84.90975907
      6.95000000	    -10.57402644	      4.51598330	     -3.24284383	      0.87260930	      1.30932228	      0.10447706	     24.38502015	     -5.27699938	    -17.00651212	      0.46298333	      0.00808058	    -19.44254362	      0.99811086	     -7.49999987	     21.39771763	     -0.06939555	     -9.53559658	      2.12243465	      0.03704347	    -18.68203566	      8.66813316	     -7.49999987	    -12.40613790	      0.26658170	     -4.08905811	    -17.64261135	    -20.84385965	      9.67200627	     60.77781452	     87.64865896	    -21.27999840	    -30.47725668	     13.85539039	     67.76561159	     82.17577323
